Patient4_TMGait_0pt7_01_left_02_EMG.mot
version=1
nRows=33
nColumns=33
inDegrees=no
endheader
time	1LAddLong	2LGlutMax	3LGlutMed	4LIliopsoas	5LSemiMemb	6LBicFemLong	7LRecFem	8LVastMed	9LVastLat	10LGasMed	11LTibAnt	12lTibPost	13LPeroneusLong	14LSol	15LExtDigLong	16LFlexDigLong	17RAddLong	18RGlutMax	19RGlutMed	20RIliopsoas	21RSemiMemb	22RBicFemLong	23RRecFem	24RVastMed	25RVastLat	26RGasMed	27RTibAnt	28RTibPost	29RPeroneusLong	30RSol	31RExtDigLong	32RFlexDigLong
3.51	-0.000763	0.15747	0.066528	0.002899	-0.019836	-0.049744	-0.15747	0.003357	0.048981	-0.023651	-0.065918	-0.002441	0.005341	0.003967	-0.17838	-0.005798	-0.077057	-0.23651	-0.009003	0.052643	0.051117	0.28793	0.15671	-0.16907	0.42587	0.00473	-0.069275	0.009613	0.086823	0.046234	0	-0.014648
3.511	0.001831	0.14801	0.014038	-0.003357	-0.019531	-0.049438	-0.14542	0.009918	0.054321	-0.014954	-0.10391	0.010071	0.01297	0.00946	0.022278	0.012054	-0.093994	-0.26382	-0.10391	0.045166	-0.19638	0.35111	0.33875	-0.10651	0.35309	-0.02655	-0.052948	0.032501	0.19516	0.031891	-0.005798	-0.017395
3.512	0.005951	0.11169	0.011139	0.001526	-0.027161	-0.019073	-0.14069	0.004578	0.052032	-0.020142	-0.10544	0.008087	-0.000916	-0.057373	0.23651	0.007019	-0.066528	-0.23773	-0.057831	-0.08606	0.18997	0.11246	0.35461	-0.061798	0.072937	-0.050049	-0.10742	0.026703	0.12253	-0.031433	-0.001831	-0.016785
3.513	0.007782	0.12863	0.009155	0.013733	-0.018005	0.003052	-0.14023	0.006104	0.047913	-0.020447	-0.043182	0.020752	-0.028076	-0.088196	0.21744	0.010529	-0.050659	-0.19424	-0.069122	-0.14252	0.12528	-0.079498	0.19959	-0.12924	-0.088196	-0.032043	-0.12787	0.035706	-0.24277	-0.18753	-0.001831	-0.016174
3.514	0.001831	0.14114	0.037079	-0.006866	0.009613	-0.016174	-0.15472	0.007477	0.044403	-0.045776	0.12085	0.004272	-0.034637	-0.060272	0.16846	0.007172	-0.053101	-0.16357	-0.016479	-0.098724	0.077972	-0.11734	-0.1178	-0.1651	-0.13046	-0.028687	-0.112	-0.020447	0.046844	-0.063019	-0.001984	-0.016479
3.515	0.014191	0.1207	0.003204	0.007782	0.018311	-0.023041	-0.1355	0.002594	0.054016	-0.078735	0.16007	0.015564	0.042572	-0.043488	-0.00061	-0.002441	-0.0383	-0.095367	-0.13351	0.010071	0.13626	-0.024719	-0.017242	0.22797	-0.34256	-0.005493	0.024567	-0.027161	-0.008392	0.085907	-0.001678	-0.007172
3.516	0.007477	0.11902	-0.032349	0.003052	0.002899	-0.029907	-0.15747	0.003204	0.048065	-0.091858	0.091095	0.016937	0.10407	-0.042572	-0.15656	-0.002441	-0.01236	-0.11261	-0.049744	0.088196	0.044861	-0.008392	-0.29572	0.45181	-0.54627	-0.003662	0.071411	-0.009613	-0.014191	-0.030518	0.000153	-0.001373
3.517	0.006866	0.10666	0.015411	-0.009308	0.001221	0.001831	-0.15778	0.002899	0.058594	-0.090637	0.05249	-0.00824	0.10605	-0.039978	-0.10742	0.001373	-0.023193	-0.14328	0.023651	0.22232	0.012665	0.013733	-0.68131	0.52978	-0.28351	0.008545	-0.040436	-0.00412	0.34454	-0.21942	-0.002747	0.003204
3.518	-0.008698	0.08606	0.036926	0.000153	-0.021362	0.015259	-0.16129	-0.000153	0.058594	-0.028229	0.016785	0.008698	0.010223	-0.018158	0.015564	0.003204	-0.005951	-0.12116	-0.22324	0.1947	-0.025787	-0.027924	-0.55588	0.28214	0.16556	0.002747	0.053711	0.001984	0.037842	-0.17364	-0.002441	0.010376
3.519	-0.002136	0.078125	-0.000305	0.000153	-0.014038	0.015411	-0.14053	-0.00061	0.052185	0.003357	0.039368	-0.002594	-0.07431	-0.045013	0.14008	-0.002899	0.023956	-0.14099	-0.21973	0.06897	-0.028229	-0.085297	-0.093384	0.048218	0.20721	-0.001526	0.55313	0.003204	-0.55191	-0.12451	-0.000458	0.004272
3.52	-0.001373	0.081787	-0.03418	-0.002289	-0.017395	0.02182	-0.15732	-0.001678	0.036316	-0.006714	0.030823	0.000763	-0.041046	-0.10422	0.064545	0.001373	0.014343	-0.12955	0.034027	0.008392	-0.016632	-0.035858	-0.039215	-0.010986	0.093231	-0.008545	0.58914	0.001373	-0.2153	-0.16037	0.001831	-0.00061
3.521	0.002899	0.096741	-0.058136	0.005493	-0.030518	0.036011	-0.12436	0.000916	0.030212	-0.010376	0.033112	0.008545	-0.002136	-0.12405	-0.007935	0.003052	0.008698	-0.081787	-0.031281	0.018311	-0.000458	0.022888	-0.040741	0.017548	0.061646	-0.001373	-0.06073	-0.000458	0.24307	-0.18188	-0.00412	-0.000763
3.522	0.011902	0.1152	-0.077972	0.001068	-0.03952	0.062103	-0.13016	0.007324	0.019836	-0.015106	0.017853	0.001068	-0.02655	-0.14374	0.024414	-0.005188	0.018005	-0.079498	0.54825	0.001068	0.000916	-0.026855	-0.07782	0.020599	0.054626	0.014648	-0.48874	-0.001068	-0.30151	-0.31967	-0.002289	-0.007019
3.523	0.019684	0.084381	-0.077667	0.004272	-0.054626	0.007629	-0.10284	0.015411	0.010071	-0.012665	0.006866	0.006561	-0.013275	-0.17532	-0.025482	-0.010223	0.034637	-0.061188	0.71549	-0.005035	-0.027618	-0.054321	-0.018463	-0.11749	0.041656	0.00946	-0.47653	0.000916	-0.35858	-0.32181	-0.002594	0.000305
3.524	0.020905	0.1062	-0.05249	-0.004883	0.00061	-0.02533	-0.11032	0.006256	0.014954	-0.019379	-0.004425	-0.006866	-0.03006	-0.12497	-0.055237	0.002747	0.014648	-0.010071	0.43274	0.016479	-0.065765	-0.002289	-0.12482	-0.039978	0.065002	0.002441	-0.3891	-0.001526	0.079651	-0.17609	-0.006409	-0.003662
3.525	0.011902	0.079651	-0.085297	0.010223	0.043488	-0.02594	-0.11459	0.007629	0.019379	-0.04425	-0.010529	-0.013733	-0.005493	-0.042419	-0.049133	0.000153	0.001984	-0.024567	0.12421	0.021667	-0.06897	0.007477	-0.15182	0.022125	0.036011	0	-0.14023	0.000305	-0.33722	-0.013733	-0.00351	-0.005951
3.526	0.015106	0.069427	-0.060883	0.011749	0.02594	-0.022278	-0.13779	0.003967	0.008087	-0.045776	0.001526	-0.00473	0.038757	-0.053101	-0.004272	-0.005798	0.025024	-0.074158	-0.1683	0.028381	-0.088501	-0.034027	-0.058441	0.007782	0.036163	-0.005188	0.1712	0.005341	0.033112	0.026398	0.002441	-0.012512
3.527	0.008392	0.062256	-0.058594	0.008087	0.00946	0.006561	-0.14023	-0.001068	0.022888	-0.040436	0.020905	0.003662	0.023346	-0.10025	0.057526	-0.003357	0.045319	-0.070038	-0.59677	0.040894	-0.24551	-0.06073	-0.018768	-0.053253	0.005951	0.001831	0.20157	-0.000458	-0.17487	-0.080414	0.000763	-0.008545
3.528	0.004425	0.006561	0.018768	0	0.005646	-0.001526	-0.10941	0.003815	0.014801	-0.030975	0.038757	-0.001373	-0.029602	-0.12909	-0.007324	0.006256	0.041809	-0.10864	-0.91507	0.056458	-0.32181	-0.024872	-0.06073	-0.11337	-0.006256	-0.00061	0.15823	-0.003815	0.009308	-0.12283	-0.002136	-0.022125
3.529	0.011597	0.011902	0.059967	0.00473	0.00412	0.03006	-0.12344	0.007629	0.003204	0.000153	0.057526	0.006714	-0.066376	-0.11719	-0.032501	0.005035	0.033112	-0.13397	0.1947	0.001221	-0.17731	0.035095	-0.087433	-0.12421	0.007019	0.001678	0.067902	0.00061	-0.41245	-0.005341	-0.003204	-0.009308
3.53	0.011139	0.024872	0.075378	0.009613	-0.006256	0.009155	-0.095215	0.006409	0.005798	-0.021973	0.038147	-0.001221	-0.028992	-0.098877	-0.041656	0.002747	0.037079	-0.06134	0.92163	-0.041351	0.1474	0.043945	-0.10712	-0.086823	0.040588	0.005646	-0.024567	-0.010834	0.30228	0.032349	-0.000916	-0.00061
3.531	0.006714	-0.012512	0.070343	0.00351	-0.012665	0.014801	-0.10864	0.007324	0.011444	-0.028992	0.05722	-0.011292	-0.008698	-0.06897	0.025024	-0.010529	0.046234	-0.15228	0.23422	-0.037079	0.23789	-0.008698	-0.034027	-0.077362	0.019836	0.005951	-0.009308	-0.005646	0.27603	0.15228	-0.004883	-0.009918
3.532	0.00473	-0.022736	0.038605	0.011902	-0.003967	0.018768	-0.10712	0.005798	0.018768	-0.024109	0.009613	0.000305	-0.010681	-0.062103	0.070496	0.005951	0.07309	-0.14969	0.11139	-0.036621	0.032349	-0.10956	-0.026245	-0.065613	0.015564	-0.003815	0.046997	-0.003204	-0.22903	0.10162	-0.003204	-0.011444
3.533	0.006561	0.010681	0.032196	-0.00885	-0.011749	0.02121	-0.11673	0.00824	0.005493	-0.010071	0.071259	-0.007477	-0.040894	-0.055237	0.076447	-0.005798	0.072937	-0.084534	-0.16327	-0.03891	0.15259	-0.17746	-0.026398	0.010529	0.014954	-0.000305	0.068665	-0.001221	-0.20813	0.019989	-0.003967	-0.015717
3.534	-0.002136	0.031586	0.016174	0.00351	-0.036926	0.036011	-0.097961	0.00473	0.010376	-0.005798	0.31326	0.001526	-0.096436	-0.056152	0.13947	0.013123	-0.019073	0.049896	-0.20599	0.013275	0.006409	-0.061951	-0.019836	0.016479	0.031738	0.00824	0.030823	-0.002899	0.018311	0.050201	-0.007629	-0.007172
3.535	0.00946	0.005035	0.044708	0.001831	-0.071259	0.045013	-0.10544	0.007477	0.014343	-0.004883	0.40298	-0.015564	-0.11322	-0.086365	0.037384	-0.003815	-0.041962	-0.090027	-0.21133	0.028381	0.041046	-0.029907	-0.050507	0.010376	0.087738	-0.003815	0.097961	-0.003815	-0.13367	0.074768	-0.001221	-0.014191
3.536	0.001984	-0.021057	0.046539	0.003967	-0.092468	0.038757	-0.10193	0.006256	0.002441	-0.022583	0.14664	-0.006256	-0.022125	-0.075531	0.005646	0.008087	-0.047302	-0.034332	-0.085144	0.053253	-0.18539	0.078125	0.026703	0.046844	0.063934	-0.003815	0.13336	-0.007324	-0.7756	0.069122	-0.004272	-0.009155
3.537	-0.002136	-0.011597	0.035553	0.007019	-0.041809	0.041962	-0.10803	0.007324	0.011597	-0.048218	-0.24765	-0.00351	0.063782	-0.050049	-0.20111	0.001984	-0.052643	-0.042267	-0.063934	-0.013275	-0.13733	0.073547	0.090179	0.11383	0.073395	-0.014496	0.10025	-0.002136	-1.0832	0.071106	-0.002594	-0.007782
3.538	0.002899	0.003662	-0.00412	0.004425	0.059662	0.031586	-0.12268	0.004883	0.015869	-0.059052	-0.27298	-0.017548	0.066986	-0.051117	0.31662	-0.000153	-0.061951	-0.017242	-0.09552	-0.046082	0.24918	-0.006409	0.21668	0.11017	0.091248	-0.019836	0.099945	-0.002441	0.56335	0.014954	-0.004425	-0.005035
3.539	0.013885	-0.002441	-0.032806	0.005035	0.051727	0.003662	-0.1149	0.001984	0.012512	-0.044403	-0.084839	-0.01297	0.005493	-0.066528	0.18555	-0.004578	-0.044403	-0.074158	0.23392	-0.001526	0.24384	0.099335	0.30502	-0.034637	0.065918	-0.026855	0.21057	-0.000916	0.93231	0.066833	-0.002289	-0.014496
3.54	0.018921	-0.007782	-0.037689	0.004272	0.048218	-0.056152	-0.096741	0.004425	0.014954	-0.029297	-0.053864	0.004425	0.015717	-0.083618	-0.34714	0.011902	-0.02182	-0.080414	0.064087	-0.007782	0.15747	0.17151	0.36865	-0.075378	0.048065	-0.025024	0.30029	0.000305	0.32898	0.10056	0	-0.013123
3.541	0.019989	-0.01236	-0.010223	0.001068	0.039978	-0.005341	-0.099945	0.007019	0.008392	-0.015717	-0.15884	-0.021667	0.041809	-0.12299	-0.16998	0.006561	-0.001221	-0.057068	0.09201	-0.061646	0.11215	0.14069	0.23331	-0.080261	-0.018311	-0.02243	0.3688	0.000458	-0.35599	0.11612	0.007019	-0.007019
3.542	0.022583	-0.00473	-0.006104	0.006714	0.002899	-0.031738	-0.097351	0.002289	0.00351	-0.016632	-0.1088	0.001678	0.02243	-0.14572	-0.24445	0.007782	-0.021515	-0.054016	0.039063	-0.066376	0.045776	0.044556	-0.075378	-0.18951	-0.11353	-0.006561	0.17502	-0.00061	0.1857	-0.017242	0.004425	-0.007629
